<svg id="Layer_1" data-name="Layer 1" xmlns="http://www.w3.org/2000/svg" xmlns:xlink="http://www.w3.org/1999/xlink" viewBox="0 0 200.86 31.48">
  <defs>
    <style>
      .cls-1, .cls-3 {
        fill: #fff;
      }

      .cls-1, .cls-5 {
        fill-rule: evenodd;
      }

      .cls-2 {
        fill: none;
        stroke: #fff;
        stroke-linecap: square;
        stroke-width: 1.17px;
      }

      .cls-4 {
        mask: url(#mask);
      }

      .cls-5 {
        fill: #2d8cff;
      }
    </style>
    <mask id="mask" x="0" y="0.41" width="112.17" height="27.6" maskUnits="userSpaceOnUse">
      <g transform="translate(0.04 0.27)">
        <g id="mask-2">
          <path id="path-1" class="cls-1" d="M90.66,8.71a4.89,4.89,0,0,0-8.49,0,5.41,5.41,0,0,0-.61,2.48l-.06,1.23v8.63l-.06,1.24a3.71,3.71,0,0,1-3.62,3.63L76.59,26V1.32A6.73,6.73,0,0,1,80.91,3,9.8,9.8,0,0,1,93.78,4.66,9.81,9.81,0,0,1,111,11.19V26l-1.23-.07a3.77,3.77,0,0,1-3.62-3.64l-.06-1.23V12.42L106,11.19a5.4,5.4,0,0,0-.6-2.47,4.89,4.89,0,0,0-8.49,0,5.36,5.36,0,0,0-.61,2.49l-.06,1.23V26L95,25.92a3.77,3.77,0,0,1-3.62-3.64l-.06-1.23V12.42l-.06-1.23A5.41,5.41,0,0,0,90.66,8.71Zm-84,17.21A3.75,3.75,0,0,1,3,22.28L3,21.05,17.68,6.25h-11L5.4,6.19A3.83,3.83,0,0,1,1.78,2.55L1.72,1.32H20.13l1.23.06A3.72,3.72,0,0,1,25,5L25,6.25,10.31,21.05h11l1.23.06a3.81,3.81,0,0,1,3.62,3.64L26.27,26H7.86Zm65.14-21a12.38,12.38,0,0,1,0,17.44,12.23,12.23,0,0,1-17.36,0,12.38,12.38,0,0,1,0-17.44,12.24,12.24,0,0,1,17.36,0ZM68.3,8.42a7.35,7.35,0,0,0-10.42,0,7.44,7.44,0,0,0,0,10.47A7.39,7.39,0,1,0,68.3,8.42Zm-31-7.1A12.25,12.25,0,0,1,46,4.93a12.38,12.38,0,0,1,0,17.44,12.23,12.23,0,0,1-17.36,0,12.36,12.36,0,0,1,0-17.44,12.21,12.21,0,0,1,8.67-3.61Zm5.2,7.1a7.33,7.33,0,0,0-10.41,0,7.38,7.38,0,1,0,10.41,0Z"/>
        </g>
      </g>
    </mask>
  </defs>
  <title>zoom blog</title>
  <path id="Line" class="cls-2" d="M123.87.32V25" transform="translate(0.04 0.27)"/>
  <g>
    <path id="Blog" class="cls-3" d="M139,25.1v-24h7.65a14.57,14.57,0,0,1,3.8.43,7.36,7.36,0,0,1,2.64,1.24,4.74,4.74,0,0,1,1.51,2,6.81,6.81,0,0,1,.48,2.63,5.4,5.4,0,0,1-.27,1.7A4.82,4.82,0,0,1,154,10.6a5.85,5.85,0,0,1-1.39,1.26,7.6,7.6,0,0,1-2,.9,7.43,7.43,0,0,1,4,1.89,4.93,4.93,0,0,1,1.34,3.61,6.64,6.64,0,0,1-.56,2.78,6.09,6.09,0,0,1-1.64,2.17,7.73,7.73,0,0,1-2.66,1.4,12.23,12.23,0,0,1-3.57.49Zm3.23-2.59h5.18a8.08,8.08,0,0,0,2.4-.31,4.63,4.63,0,0,0,1.65-.89,3.46,3.46,0,0,0,1-1.38,4.91,4.91,0,0,0,.3-1.75,3.6,3.6,0,0,0-1.32-2.94,6.22,6.22,0,0,0-4-1.08h-5.18Zm0-10.65h4.28a8.06,8.06,0,0,0,2.39-.31,4.72,4.72,0,0,0,1.68-.83,3.3,3.3,0,0,0,1-1.3,4.36,4.36,0,0,0,.32-1.67,3.67,3.67,0,0,0-1.28-3.1,6.5,6.5,0,0,0-4-1h-4.42ZM159.74,25.1V.45h3V25.1Zm6.83-8.49a10.81,10.81,0,0,1,.57-3.61,7.46,7.46,0,0,1,1.62-2.75,7.06,7.06,0,0,1,2.55-1.76,9.41,9.41,0,0,1,6.72,0,7.11,7.11,0,0,1,2.54,1.76A7.44,7.44,0,0,1,182.18,13a11.07,11.07,0,0,1,.56,3.61,11,11,0,0,1-.56,3.62A7.64,7.64,0,0,1,180.57,23,6.8,6.8,0,0,1,178,24.72a9.53,9.53,0,0,1-6.71,0A6.8,6.8,0,0,1,168.76,23a7.66,7.66,0,0,1-1.62-2.74A10.78,10.78,0,0,1,166.57,16.61Zm3.06,0a7.74,7.74,0,0,0,1.25,4.69,4.44,4.44,0,0,0,3.8,1.69,4.35,4.35,0,0,0,3.75-1.69,7.74,7.74,0,0,0,1.24-4.69,7.83,7.83,0,0,0-1.25-4.72,4.34,4.34,0,0,0-3.74-1.69,5.26,5.26,0,0,0-2.22.44,4,4,0,0,0-1.58,1.25,5.48,5.48,0,0,0-.94,2A10.66,10.66,0,0,0,169.63,16.63Z" transform="translate(0.04 0.27)"/>
    <path id="Combined-Shape" class="cls-3" d="M192.42,7.85a8,8,0,0,1,2.06.25,6.19,6.19,0,0,1,1.73.72h4.61V9.91c0,.37-.24.61-.7.71l-1.93.27a5.17,5.17,0,0,1,.57,2.42,5.23,5.23,0,0,1-.48,2.26A5.06,5.06,0,0,1,197,17.3a5.75,5.75,0,0,1-2,1.1,8,8,0,0,1-2.54.39,8.59,8.59,0,0,1-2.26-.28,2.78,2.78,0,0,0-.82.71,1.33,1.33,0,0,0-.27.76,1,1,0,0,0,.49.91,3.59,3.59,0,0,0,1.3.44,11.65,11.65,0,0,0,1.43.15l.4,0c.69,0,1.39.06,2.11.11a17.89,17.89,0,0,1,2.11.26,6.45,6.45,0,0,1,1.83.6,3.2,3.2,0,0,1,1.78,3.07,4.45,4.45,0,0,1-.54,2.11,5.6,5.6,0,0,1-1.56,1.8,8.05,8.05,0,0,1-2.5,1.28,10.77,10.77,0,0,1-3.34.48,12.53,12.53,0,0,1-3.25-.37,7.25,7.25,0,0,1-2.31-1,4.35,4.35,0,0,1-1.38-1.43,3.37,3.37,0,0,1-.46-1.7,3,3,0,0,1,.79-2.13,5.53,5.53,0,0,1,2.15-1.39,3,3,0,0,1-1.2-.89,2.42,2.42,0,0,1-.44-1.51,2.37,2.37,0,0,1,.14-.77,3,3,0,0,1,.42-.78,4.18,4.18,0,0,1,.68-.73,3.78,3.78,0,0,1,.92-.61A5.11,5.11,0,0,1,186.69,16a5.2,5.2,0,0,1-.7-2.72,5.15,5.15,0,0,1,.48-2.25,4.87,4.87,0,0,1,1.32-1.73,6,6,0,0,1,2-1.09A8.23,8.23,0,0,1,192.42,7.85Zm-2.5,15.84a5,5,0,0,0-1.53,1.09,2.21,2.21,0,0,0-.6,1.56,2,2,0,0,0,.3,1.06,2.44,2.44,0,0,0,.89.85,5.37,5.37,0,0,0,1.52.57,9,9,0,0,0,2.15.22,10.11,10.11,0,0,0,2.16-.22,5.48,5.48,0,0,0,1.62-.63,2.9,2.9,0,0,0,1-1,2.2,2.2,0,0,0,.35-1.23,1.39,1.39,0,0,0-.35-1,2.24,2.24,0,0,0-.94-.6,7,7,0,0,0-1.39-.31C194.59,24,194,24,193.45,24l-1.79-.09C191.05,23.82,190.47,23.77,189.92,23.69Zm2.5-13.7a3.78,3.78,0,0,0-2.76.93,3.32,3.32,0,0,0-.94,2.47,3.86,3.86,0,0,0,.24,1.39,2.87,2.87,0,0,0,.71,1.07,3.38,3.38,0,0,0,1.16.71,4.58,4.58,0,0,0,1.59.25,4.52,4.52,0,0,0,1.58-.25,3.25,3.25,0,0,0,1.15-.71,2.87,2.87,0,0,0,.71-1.07,3.86,3.86,0,0,0,.23-1.39,3.29,3.29,0,0,0-.94-2.47A3.76,3.76,0,0,0,192.42,10Z" transform="translate(0.04 0.27)"/>
  </g>
  <g id="Zoom-Blue-Logo-Copy">
    <g class="cls-4">
      <polygon id="Fill-1" class="cls-5" points="0 0.41 112.17 0.41 112.17 28.02 0 28.02 0 0.41"/>
    </g>
  </g>
</svg>
